<?xml version="1.0" encoding="utf-8"?>
<!-- Generator: Adobe Illustrator 16.0.0, SVG Export Plug-In . SVG Version: 6.00 Build 0)  -->
<!DOCTYPE svg PUBLIC "-//W3C//DTD SVG 1.1//EN" "http://www.w3.org/Graphics/SVG/1.1/DTD/svg11.dtd">
<svg version="1.1" id="Capa_1" xmlns="http://www.w3.org/2000/svg" xmlns:xlink="http://www.w3.org/1999/xlink" x="0px" y="0px"
	 width="150px" height="50px" viewBox="0 0 150 50" enable-background="new 0 0 150 50" xml:space="preserve">
<g>
	<path fill="#4D8768" d="M46.179,35.775l5.126-22.209l8.365,16.055l8.662-16.055l4.608,22.209h-3.773l-2.35-12.47l-7.209,13.421
		l-7.005-13.435l-2.62,12.483H46.179z"/>
	<path fill="#4D8768" d="M86.498,18.979h3.84v16.538h-3.84v-1.729c-1.576,1.471-3.264,2.209-5.077,2.209
		c-2.284,0-4.175-0.828-5.668-2.481c-1.486-1.688-2.227-3.789-2.227-6.314c0-2.482,0.742-4.549,2.227-6.199
		c1.483-1.654,3.339-2.479,5.569-2.479c1.922,0,3.647,0.79,5.176,2.375V18.979z M77.431,27.201c0,1.582,0.423,2.873,1.274,3.868
		c0.872,1.009,1.972,1.512,3.298,1.512c1.408,0,2.557-0.486,3.43-1.46c0.871-1.007,1.304-2.283,1.304-3.836
		c0-1.552-0.433-2.833-1.304-3.84c-0.873-0.985-2.004-1.478-3.397-1.478c-1.312,0-2.408,0.496-3.297,1.493
		C77.867,24.474,77.431,25.715,77.431,27.201z"/>
	<path fill="#4D8768" d="M96.613,12.921v22.596h-3.819V12.921H96.613z"/>
	<path fill="#4D8768" d="M102.91,12.921v22.596h-3.823V12.921H102.91z"/>
	<path fill="#4D8768" d="M120.441,28.15H108.59c0.103,1.355,0.545,2.438,1.324,3.243c0.78,0.793,1.782,1.188,3.005,1.188
		c0.95,0,1.735-0.227,2.359-0.679c0.614-0.453,1.308-1.291,2.087-2.513l3.23,1.801c-0.501,0.846-1.023,1.575-1.581,2.18
		c-0.558,0.606-1.146,1.106-1.781,1.494c-0.632,0.393-1.32,0.677-2.057,0.858c-0.736,0.184-1.531,0.274-2.394,0.274
		c-2.466,0-4.447-0.794-5.942-2.378c-1.493-1.595-2.242-3.714-2.242-6.354c0-2.614,0.723-4.729,2.175-6.349
		c1.459-1.597,3.396-2.394,5.807-2.394c2.432,0,4.357,0.773,5.771,2.327c1.402,1.54,2.105,3.673,2.105,6.4L120.441,28.15z
		 M116.521,25.027c-0.533-2.04-1.818-3.06-3.854-3.06c-0.463,0-0.903,0.072-1.31,0.214c-0.41,0.142-0.778,0.345-1.113,0.612
		c-0.329,0.265-0.617,0.579-0.853,0.955c-0.237,0.377-0.423,0.801-0.545,1.274h7.675V25.027L116.521,25.027z"/>
	<path fill="#4D8768" d="M131.863,21.801l-3.158,1.68c-0.498-1.006-1.115-1.512-1.851-1.512c-0.35,0-0.65,0.119-0.896,0.35
		c-0.25,0.232-0.375,0.528-0.375,0.89c0,0.633,0.735,1.26,2.206,1.883c2.026,0.87,3.389,1.672,4.094,2.409
		c0.702,0.736,1.053,1.725,1.053,2.968c0,1.593-0.592,2.927-1.768,4c-1.145,1.021-2.526,1.528-4.141,1.528
		c-2.777,0-4.742-1.356-5.895-4.062l3.264-1.51c0.447,0.795,0.794,1.3,1.034,1.51c0.466,0.43,1.018,0.647,1.661,0.647
		c1.292,0,1.937-0.588,1.937-1.765c0-0.681-0.495-1.313-1.496-1.904c-0.384-0.189-0.769-0.377-1.151-0.559
		c-0.384-0.182-0.778-0.367-1.17-0.562c-1.11-0.541-1.894-1.084-2.345-1.627c-0.582-0.69-0.866-1.582-0.866-2.667
		c0-1.439,0.491-2.626,1.479-3.565c1.007-0.937,2.229-1.408,3.667-1.408C129.261,18.523,130.835,19.615,131.863,21.801z"/>
	<path fill="#4D8768" d="M137.937,22.546v12.971h-3.819V22.546h-1.632v-3.567h1.632v-6.058h3.819v6.058h11.666v3.567H137.937z"/>
	<rect x="141.621" y="18.979" fill="#4D8768" width="3.818" height="16.538"/>
	<path fill="#4D8768" d="M141.043,15.378c0-0.667,0.242-1.245,0.732-1.732c0.486-0.484,1.067-0.731,1.747-0.731
		c0.692,0,1.279,0.243,1.767,0.731c0.486,0.478,0.73,1.057,0.73,1.747c0,0.691-0.244,1.279-0.73,1.768
		c-0.474,0.487-1.057,0.732-1.746,0.732c-0.696,0-1.281-0.245-1.768-0.732C141.29,16.674,141.043,16.08,141.043,15.378z"/>
</g>
<g>
	<circle fill="#4D8768" cx="19.014" cy="24.82" r="19.014"/>
	<path opacity="0.8" fill="#2B5445" enable-background="new    " d="M38.028,24.822c0-0.917-0.065-1.817-0.19-2.698l-7.465-7.467
		L7.769,36.336l7.086,7.04c1.339,0.299,2.731,0.459,4.161,0.459C29.516,43.834,38.028,35.32,38.028,24.822z"/>
	<g>
		<path fill="#699B68" d="M24.027,24.319c-2.229-0.007-4.031-1.819-4.025-4.049l0.009-3.145c0.008-2.229,1.819-4.03,4.048-4.024
			l3.146,0.007c2.231,0.007,4.031,1.819,4.025,4.047l-0.009,3.147c-0.007,2.229-1.818,4.031-4.048,4.025L24.027,24.319z"/>
		<g>
			<path fill="#699B68" d="M12.748,35.994c-1.29,1.527-3.444,1.884-4.854,0.467L7.77,36.336c-1.411-1.419-1.042-3.569,0.494-4.852
				c3.425-2.857,10.754-7.938,13.931-10.24c0.661-0.479,1.247,0.364,0.845,0.904C20.296,25.825,15.625,32.583,12.748,35.994z"/>
		</g>
	</g>
</g>
</svg>
