<?xml version="1.0" encoding="utf-8"?>
<!-- Generator: Adobe Illustrator 16.0.0, SVG Export Plug-In . SVG Version: 6.00 Build 0)  -->
<!DOCTYPE svg PUBLIC "-//W3C//DTD SVG 1.1//EN" "http://www.w3.org/Graphics/SVG/1.1/DTD/svg11.dtd">
<svg version="1.1" id="Capa_1" xmlns="http://www.w3.org/2000/svg" xmlns:xlink="http://www.w3.org/1999/xlink" x="0px" y="0px"
	 width="150px" height="150px" viewBox="0 0 150 150" enable-background="new 0 0 150 150" xml:space="preserve">
<g>
	<path fill="#4F936F" d="M7.221,146.378l6.813-29.506l11.112,21.329l11.508-21.329l6.123,29.506h-5.011l-3.123-16.565l-9.581,17.827
		l-9.308-17.845l-3.48,16.583H7.221z"/>
	<path fill="#4F936F" d="M60.788,124.067h5.099v21.972h-5.099v-2.3c-2.09,1.954-4.338,2.93-6.744,2.93
		c-3.037,0-5.549-1.096-7.534-3.292c-1.97-2.24-2.954-5.037-2.954-8.391c0-3.293,0.984-6.038,2.954-8.232
		c1.971-2.196,4.436-3.293,7.398-3.293c2.558,0,4.85,1.051,6.88,3.157V124.067z M48.742,134.986c0,2.104,0.564,3.82,1.692,5.143
		c1.157,1.338,2.618,2.008,4.375,2.008c1.879,0,3.399-0.646,4.558-1.94c1.158-1.338,1.736-3.036,1.736-5.097
		c0-2.062-0.579-3.76-1.736-5.1c-1.158-1.307-2.662-1.962-4.512-1.962c-1.745,0-3.204,0.662-4.377,1.984
		C49.323,131.362,48.742,133.015,48.742,134.986z"/>
	<path fill="#4F936F" d="M74.227,116.016v30.023h-5.074v-30.023H74.227z"/>
	<path fill="#4F936F" d="M82.588,116.016v30.023h-5.075v-30.023H82.588z"/>
	<path fill="#4F936F" d="M105.883,136.248H90.139c0.135,1.805,0.723,3.241,1.76,4.311c1.036,1.052,2.368,1.578,3.991,1.578
		c1.264,0,2.31-0.302,3.136-0.901c0.813-0.604,1.737-1.716,2.774-3.338l4.287,2.39c-0.662,1.128-1.361,2.093-2.098,2.898
		c-0.738,0.804-1.527,1.467-2.368,1.986c-0.841,0.518-1.753,0.897-2.731,1.138c-0.976,0.242-2.035,0.359-3.18,0.359
		c-3.276,0-5.91-1.051-7.895-3.155c-1.984-2.121-2.979-4.934-2.979-8.437c0-3.477,0.963-6.286,2.889-8.437
		c1.94-2.121,4.511-3.18,7.715-3.18c3.234,0,5.791,1.028,7.669,3.089c1.863,2.046,2.798,4.879,2.798,8.504L105.883,136.248z
		 M100.675,132.1c-0.708-2.709-2.417-4.062-5.12-4.062c-0.618,0-1.197,0.095-1.738,0.283c-0.543,0.187-1.034,0.458-1.479,0.812
		c-0.44,0.353-0.822,0.776-1.138,1.273c-0.315,0.498-0.558,1.061-0.722,1.692H100.675z"/>
	<path fill="#4F936F" d="M121.059,127.813l-4.196,2.232c-0.66-1.339-1.479-2.008-2.457-2.008c-0.468,0-0.867,0.155-1.195,0.464
		c-0.332,0.307-0.496,0.701-0.496,1.181c0,0.843,0.977,1.678,2.931,2.502c2.692,1.157,4.505,2.223,5.438,3.199
		c0.932,0.978,1.397,2.292,1.397,3.944c0,2.115-0.782,3.887-2.346,5.313c-1.52,1.355-3.354,2.027-5.503,2.027
		c-3.687,0-6.295-1.796-7.827-5.39l4.331-2.008c0.6,1.054,1.059,1.724,1.376,2.008c0.616,0.572,1.353,0.857,2.207,0.857
		c1.717,0,2.573-0.781,2.573-2.346c0-0.903-0.66-1.744-1.986-2.528c-0.508-0.255-1.021-0.502-1.532-0.741
		c-0.51-0.242-1.03-0.489-1.556-0.746c-1.474-0.722-2.512-1.441-3.112-2.163c-0.769-0.92-1.15-2.1-1.15-3.543
		c0-1.911,0.653-3.489,1.962-4.737c1.339-1.246,2.962-1.871,4.871-1.871C117.601,123.461,119.691,124.911,121.059,127.813z"/>
	<path fill="#4F936F" d="M129.129,128.805v17.234h-5.075v-17.234h-2.165v-4.737h2.165v-8.052h5.075v8.052h15.496v4.737H129.129z"/>
	<rect x="134.022" y="124.067" fill="#4F936F" width="5.077" height="21.972"/>
	<path fill="#4F936F" d="M133.258,119.282c0-0.887,0.323-1.655,0.97-2.301c0.647-0.646,1.421-0.97,2.323-0.97
		c0.918,0,1.698,0.323,2.348,0.97c0.646,0.632,0.968,1.406,0.968,2.322c0,0.918-0.321,1.699-0.968,2.345
		c-0.634,0.648-1.405,0.973-2.323,0.973c-0.92,0-1.7-0.324-2.348-0.973C133.581,121.003,133.258,120.215,133.258,119.282z"/>
</g>
<g>
	<circle fill="#4F936F" cx="75.923" cy="47.176" r="43.704"/>
	<path opacity="0.8" fill="#2B5847" d="M119.627,47.176c0-2.106-0.153-4.175-0.44-6.202l-17.16-17.16l-51.954,49.83l16.289,16.184
		c3.077,0.687,6.276,1.052,9.562,1.052C100.062,90.88,119.627,71.313,119.627,47.176z"/>
	<g>
		<path fill="#6EAA6F" d="M87.443,46.022c-5.124-0.016-9.266-4.18-9.251-9.305l0.021-7.231c0.015-5.124,4.18-9.266,9.303-9.252
			l7.232,0.02c5.127,0.016,9.269,4.18,9.253,9.303l-0.021,7.231c-0.016,5.125-4.181,9.268-9.306,9.253L87.443,46.022z"/>
		<g>
			<path fill="#6EAA6F" d="M61.516,72.859c-2.964,3.512-7.915,4.332-11.155,1.073l-0.288-0.289
				c-3.24-3.259-2.391-8.205,1.137-11.149c7.872-6.572,24.719-18.248,32.02-23.538c1.521-1.103,2.867,0.835,1.942,2.076
				C78.868,49.484,68.132,65.022,61.516,72.859z"/>
		</g>
	</g>
</g>
</svg>
